# xmcd CD database file
#
# Track frame offsets:
#	150
#	25350
#	60097
#	82417
#	105530
#	135792
#	158862
#	195295
#
# Disc length: 2722 seconds
#
# Revision: 0
# Processed by: cddbd v1.5.1PL0 Copyright (c) Steve Scherf et al.
# Submitted via: CDex 1.51
#
DISCID=580aa008
DTITLE=Ludvig Berghe trio - Weekend
DYEAR=2005
DGENRE=Jazz
TTITLE0=Just her weekend fling
TTITLE1=SoFo nights
TTITLE2=Noonish breakfast
TTITLE3=Every reason to
TTITLE4=Jazz manifesto
TTITLE5=Handed down
TTITLE6=Playing in the slumbering backyards of the bourgeoisie
TTITLE7=Decline in retrospect
EXTD=YEAR: 2005
EXTT0=
EXTT1=
EXTT2=
EXTT3=
EXTT4=
EXTT5=
EXTT6=
EXTT7=
PLAYORDER=
